<?xml version="1.0" standalone="no"?>
<!DOCTYPE svg PUBLIC "-//W3C//DTD SVG 20010904//EN"
 "http://www.w3.org/TR/2001/REC-SVG-20010904/DTD/svg10.dtd">
<svg version="1.0" xmlns="http://www.w3.org/2000/svg"
 width="1000.000000pt" height="272.000000pt" viewBox="0 0 1000.000000 272.000000"
 preserveAspectRatio="xMidYMid meet">

<g transform="translate(0.000000,272.000000) scale(0.100000,-0.100000)"
fill="#000000" stroke="none">
<path d="M6613 2043 c-12 -2 -34 -18 -48 -34 l-25 -31 0 -435 0 -435 29 -29
29 -29 1572 0 1572 0 29 29 29 29 0 436 0 436 -29 32 -29 33 -1554 1 c-854 1
-1563 -1 -1575 -3z m530 -105 l57 -11 0 -64 c0 -62 -1 -64 -22 -57 -124 39
-197 44 -245 14 -72 -43 -51 -105 57 -169 217 -128 257 -167 267 -265 11 -105
-49 -196 -154 -236 -63 -23 -206 -27 -309 -8 l-64 11 0 69 c0 37 2 68 5 68 2
0 27 -9 56 -20 59 -24 151 -36 202 -26 50 9 87 50 87 96 0 53 -24 78 -135 140
-168 95 -215 150 -215 254 0 70 12 102 57 148 70 72 181 89 356 56z m1575 0
c62 -15 155 -79 189 -130 91 -133 104 -323 34 -475 -36 -76 -91 -132 -167
-169 -55 -27 -66 -29 -184 -29 -114 0 -130 2 -182 27 -106 49 -181 143 -207
259 -13 56 -13 182 0 238 51 225 266 340 517 279z m-1160 -160 l3 -158 159 0
160 0 0 160 0 161 78 -3 77 -3 0 -395 0 -395 -75 0 -75 0 -3 178 -2 177 -160
0 -160 0 0 -174 c0 -197 5 -186 -85 -186 -93 0 -85 -38 -85 399 0 213 3 391 7
395 4 4 41 5 83 4 l75 -3 3 -157z m2003 135 c26 -11 59 -37 75 -59 27 -35 29
-43 29 -133 0 -70 -5 -104 -17 -126 -46 -86 -137 -135 -264 -143 l-83 -5 -3
-151 -3 -151 -60 -3 c-32 -2 -69 -1 -82 3 l-23 5 0 389 c0 213 3 391 8 395 4
5 90 6 192 4 160 -4 191 -7 231 -25z"/>
<path d="M8516 1830 c-82 -26 -137 -128 -144 -265 -10 -206 84 -335 234 -323
105 9 172 87 197 232 22 128 -27 282 -105 333 -44 29 -129 40 -182 23z"/>
<path d="M9300 1695 l0 -125 50 0 c28 0 64 7 81 15 82 43 95 181 20 220 -17 8
-55 15 -91 15 l-60 0 0 -125z"/>
<path d="M255 2031 c-11 -5 -29 -19 -40 -31 -19 -21 -20 -36 -20 -484 l0 -461
87 -3 c84 -3 88 -4 104 -31 9 -16 32 -36 51 -45 l34 -16 -31 45 c-17 25 -27
45 -21 45 5 0 17 7 25 16 14 13 16 48 16 225 l0 209 190 0 190 0 0 55 0 55
-187 2 -188 3 -3 142 c-2 118 0 144 13 157 14 14 45 16 201 16 l184 0 0 55 0
55 -292 -1 c-161 0 -302 -4 -313 -8z"/>
<path d="M1016 2024 c-14 -13 -16 -62 -16 -382 0 -214 5 -386 11 -412 14 -63
51 -114 104 -145 l45 -27 37 31 c25 21 48 31 71 31 l33 0 -7 -50 -7 -50 59 -2
c280 -9 411 34 477 157 21 39 22 52 25 453 l3 413 -118 -3 c-114 -3 -118 -4
-130 -28 -10 -19 -13 -120 -13 -410 0 -286 -3 -391 -13 -409 -21 -43 -73 -65
-152 -65 -79 0 -131 22 -152 65 -10 18 -13 129 -13 437 l0 412 -114 0 c-91 0
-118 -3 -130 -16z"/>
<path d="M2337 2028 c-15 -12 -17 -53 -19 -403 -2 -214 -7 -399 -12 -409 -8
-17 -6 -18 19 -12 17 4 31 3 35 -4 4 -7 16 -7 38 1 39 14 62 6 62 -20 0 -11 4
-22 10 -26 5 -3 7 -12 3 -20 -10 -29 15 -14 40 23 52 74 51 73 55 490 l3 392
-108 0 c-72 0 -115 -4 -126 -12z"/>
<path d="M2820 2020 c-19 -19 -20 -33 -20 -261 0 -162 3 -240 10 -237 6 2 62
43 125 92 l115 89 0 169 0 168 -105 0 c-92 0 -108 -3 -125 -20z"/>
<path d="M3374 2030 c-48 -19 -54 -43 -54 -220 l0 -166 -87 -70 -88 -69 88 -3
87 -3 0 -224 0 -225 114 0 c91 0 118 3 130 16 14 13 16 48 16 225 l0 209 190
0 190 0 0 55 0 55 -187 2 -188 3 -3 139 c-4 188 -19 176 215 176 l183 0 0 55
0 55 -292 -1 c-161 0 -303 -4 -314 -9z"/>
<path d="M4150 2020 c-20 -20 -20 -31 -18 -493 l3 -472 114 -3 c75 -2 118 1
127 9 12 9 14 94 14 495 l0 484 -110 0 c-97 0 -112 -2 -130 -20z"/>
<path d="M4648 2029 c-17 -9 -18 -41 -18 -450 0 -380 2 -444 16 -470 27 -54
57 -59 329 -59 l245 0 0 55 0 55 -148 0 c-112 0 -153 3 -168 14 -18 14 -19 32
-22 440 l-3 426 -107 0 c-59 0 -115 -5 -124 -11z"/>
<path d="M5368 2029 c-17 -9 -18 -44 -18 -494 l0 -485 54 0 53 0 7 53 c3 28 6
209 6 402 0 192 4 345 8 340 5 -6 53 -187 108 -402 l99 -393 87 0 c71 0 91 3
106 18 11 11 50 148 111 392 52 206 98 379 103 385 4 5 8 -172 8 -393 l0 -402
108 0 c93 0 111 3 126 18 15 17 16 62 14 493 l-3 474 -163 3 c-159 2 -163 2
-186 -21 -23 -23 -34 -64 -163 -604 -15 -62 -30 -110 -34 -105 -3 4 -39 153
-78 332 -40 179 -77 342 -82 363 l-10 37 -122 0 c-67 0 -130 -5 -139 -11z"/>
<path d="M2800 1275 l0 -225 120 0 120 0 10 26 c6 15 9 109 8 223 l-3 196
-127 3 -128 3 0 -226z"/>
<path d="M2215 1138 c-11 -7 -75 -14 -142 -16 l-123 -4 0 -44 c0 -53 8 -56
128 -54 48 1 112 2 143 1 l57 -1 -8 -35 c-7 -32 -6 -35 15 -35 44 0 55 10 55
52 0 25 -4 37 -11 33 -17 -11 -70 17 -80 42 -5 14 -6 35 -3 49 7 26 -1 29 -31
12z"/>
<path d="M1130 974 c-15 -38 -12 -46 13 -42 12 2 21 6 20 11 -2 4 -3 18 -3 32
0 33 -18 32 -30 -1z"/>
<path d="M1021 890 c-10 -6 -10 -12 -2 -29 14 -26 27 -27 40 -3 7 14 5 21 -8
29 -10 6 -23 8 -30 3z"/>
<path d="M2227 884 c-8 -8 1 -24 14 -24 5 0 9 7 9 15 0 15 -12 20 -23 9z"/>
<path d="M1860 843 l0 -39 41 4 c33 3 39 7 33 21 -3 9 -7 22 -7 29 0 6 -5 12
-11 12 -6 0 -21 3 -33 6 -21 6 -23 3 -23 -33z"/>
<path d="M2167 836 c-28 -25 -34 -42 -16 -48 11 -4 -68 -80 -136 -133 l-39
-29 39 -8 c21 -5 44 -13 51 -19 8 -7 23 -3 48 12 l37 21 -31 23 -30 22 43 18
c23 10 49 24 57 31 8 7 44 22 80 34 78 26 96 40 53 40 -23 0 -32 5 -36 21 -8
30 -33 18 -29 -15 2 -18 -2 -26 -13 -26 -8 0 -33 -11 -55 -25 -54 -34 -67 -31
-36 6 59 69 67 122 13 75z"/>
<path d="M2486 821 c-3 -5 1 -15 10 -22 13 -10 17 -10 24 1 5 8 6 18 4 22 -7
11 -31 10 -38 -1z"/>
<path d="M4706 803 c-10 -10 -7 -403 3 -403 5 0 11 5 13 11 3 8 14 6 37 -6 80
-41 161 24 161 130 0 106 -78 164 -162 121 l-28 -15 0 79 c0 73 -8 99 -24 83z
m151 -168 c47 -33 54 -136 13 -188 -26 -33 -62 -41 -105 -23 l-35 15 0 90 c0
88 1 91 28 105 35 20 72 20 99 1z"/>
<path d="M8094 796 c-12 -31 1 -51 34 -54 31 -3 32 -2 32 32 0 33 -2 36 -30
36 -17 0 -33 -6 -36 -14z"/>
<path d="M1811 786 c-8 -10 -9 -16 -1 -21 13 -8 30 3 30 21 0 18 -14 18 -29 0z"/>
<path d="M553 776 c3 -7 1 -18 -5 -24 -16 -16 -1 -30 27 -24 16 3 25 11 25 23
0 11 -5 19 -11 19 -5 0 -7 5 -4 10 3 6 -4 10 -15 10 -15 0 -20 -5 -17 -14z"/>
<path d="M3056 775 c-3 -8 -12 -15 -21 -15 -18 0 -19 -5 -5 -31 14 -25 30 -24
30 1 0 11 5 20 10 20 6 0 10 9 10 20 0 23 -15 27 -24 5z"/>
<path d="M2661 764 c13 -16 29 -19 29 -5 0 5 -9 11 -21 14 -16 4 -18 3 -8 -9z"/>
<path d="M5386 713 c26 -38 56 -80 67 -94 l19 -27 -66 -91 c-36 -50 -66 -93
-66 -96 0 -3 16 -5 34 -5 32 0 39 6 83 70 26 38 51 70 54 70 3 0 27 -31 53
-70 44 -64 51 -70 82 -70 19 0 34 2 34 5 0 3 -29 46 -65 96 l-66 90 66 94 66
95 -38 0 c-36 0 -41 -4 -81 -65 -23 -36 -46 -65 -50 -65 -5 0 -29 29 -53 65
-41 61 -46 65 -82 65 l-39 0 48 -67z"/>
<path d="M5808 760 c-68 -36 -107 -124 -94 -211 15 -103 77 -149 201 -149 l75
0 0 29 0 30 -53 -6 c-101 -10 -157 39 -157 139 0 90 68 146 163 135 48 -6 48
-6 45 21 -3 26 -5 27 -73 29 -54 2 -79 -2 -107 -17z"/>
<path d="M7700 774 c0 -3 32 -88 71 -190 l72 -184 32 0 32 0 71 183 c40 100
72 185 72 190 0 4 -15 7 -34 7 l-33 0 -53 -140 c-29 -77 -54 -139 -56 -138 -1
2 -23 57 -47 123 -25 66 -48 128 -52 138 -5 11 -18 17 -41 17 -19 0 -34 -3
-34 -6z"/>
<path d="M915 760 c-3 -5 -4 -14 0 -19 3 -5 -4 -13 -16 -16 -14 -5 -18 -10
-11 -17 7 -7 18 -2 35 18 24 27 26 44 7 44 -5 0 -12 -4 -15 -10z"/>
<path d="M2851 741 c-10 -17 -9 -21 3 -21 20 0 31 19 18 32 -7 7 -14 3 -21
-11z"/>
<path d="M8557 743 c-4 -3 -7 -21 -7 -39 0 -26 -4 -33 -22 -36 -31 -4 -31 -42
-1 -46 19 -3 21 -10 25 -92 3 -100 17 -125 74 -136 47 -9 74 3 74 32 0 20 -5
24 -27 24 -49 0 -54 10 -51 91 l3 74 38 3 c31 3 37 7 37 27 0 20 -6 24 -37 27
-36 3 -38 5 -41 41 -3 33 -6 37 -31 37 -15 0 -31 -3 -34 -7z"/>
<path d="M750 695 c0 -11 108 -115 119 -115 6 0 11 6 11 14 0 11 17 9 82 -10
89 -26 108 -29 108 -15 0 10 -64 35 -143 56 -31 8 -84 28 -117 45 -33 17 -60
28 -60 25z"/>
<path d="M6100 672 c-15 -5 -26 -17 -28 -30 -3 -22 -1 -23 46 -16 57 7 92 -7
92 -36 0 -17 -7 -20 -45 -20 -51 0 -99 -20 -109 -45 -13 -34 -6 -85 14 -105
25 -25 95 -27 128 -4 20 14 22 14 22 0 0 -11 10 -16 30 -16 l30 0 0 100 c0
105 -9 138 -41 159 -25 15 -105 23 -139 13z m98 -151 c21 -13 10 -54 -17 -67
-52 -26 -96 27 -49 60 25 18 46 20 66 7z"/>
<path d="M6464 671 c-12 -5 -25 -14 -29 -20 -9 -16 -25 -13 -25 4 0 10 -10 15
-30 15 l-31 0 3 -132 3 -133 33 -3 32 -3 0 100 0 100 31 17 c25 12 37 14 55 5
23 -10 24 -15 24 -116 l0 -106 33 3 32 3 3 98 3 98 34 16 c33 16 36 15 55 -2
17 -16 20 -30 20 -117 l0 -98 30 0 30 0 0 103 c0 125 -5 144 -41 162 -37 20
-57 19 -104 -5 -35 -18 -40 -18 -56 -4 -21 19 -77 27 -105 15z"/>
<path d="M6915 670 c-87 -36 -108 -182 -34 -244 26 -22 40 -26 94 -26 78 0 95
6 95 34 0 21 -4 22 -64 18 -55 -4 -67 -1 -85 17 -42 42 -29 51 69 51 l90 0 0
30 c0 17 -7 46 -15 66 -21 51 -94 78 -150 54z m83 -52 c7 -7 12 -20 12 -30 0
-15 -9 -18 -50 -18 -43 0 -50 3 -50 20 0 34 62 54 88 28z"/>
<path d="M7237 660 c-30 -24 -37 -25 -37 -4 0 11 -8 14 -27 12 l-28 -3 0 -130
0 -130 33 -3 32 -3 0 95 c0 87 2 96 22 110 12 9 33 16 45 16 19 0 23 5 23 30
0 36 -24 40 -63 10z"/>
<path d="M7390 672 c-15 -5 -26 -17 -28 -30 -3 -22 -1 -23 46 -16 57 7 92 -7
92 -36 0 -17 -7 -20 -45 -20 -51 0 -99 -20 -109 -45 -13 -34 -6 -85 14 -105
25 -25 95 -27 128 -4 20 14 22 14 22 0 0 -11 10 -16 30 -16 l30 0 0 100 c0
105 -9 138 -41 159 -25 15 -105 23 -139 13z m104 -155 c41 -30 -19 -85 -72
-66 -28 11 -29 43 0 63 27 19 48 20 72 3z"/>
<path d="M8305 671 c-48 -21 -69 -59 -73 -131 -4 -68 -3 -71 30 -104 39 -39
97 -53 163 -39 33 8 40 13 40 33 0 24 -2 25 -58 22 -65 -4 -107 15 -107 48 0
18 7 20 85 20 64 0 87 4 91 14 9 24 -14 91 -40 115 -27 25 -97 37 -131 22z
m76 -51 c10 -6 19 -20 19 -30 0 -17 -7 -20 -50 -20 -56 0 -67 17 -28 44 26 19
33 19 59 6z"/>
<path d="M8870 673 c-8 -3 -22 -12 -31 -20 -14 -12 -17 -12 -22 2 -4 9 -19 15
-37 15 l-30 0 0 -135 0 -135 35 0 35 0 0 93 c0 106 11 127 68 127 43 0 52 -22
52 -129 l0 -91 30 0 30 0 0 115 c0 110 -1 117 -25 140 -23 24 -68 32 -105 18z"/>
<path d="M9113 670 c-15 -6 -23 -18 -23 -34 0 -23 2 -24 32 -15 50 14 76 11
98 -11 32 -32 24 -40 -40 -40 -75 0 -110 -27 -110 -84 0 -48 8 -65 41 -81 36
-19 57 -19 94 1 19 10 31 11 33 5 2 -6 17 -11 33 -11 l29 0 0 106 c0 58 -5
114 -10 125 -23 42 -118 63 -177 39z m125 -171 c7 -40 -70 -67 -97 -35 -9 11
-10 20 -1 36 9 17 19 21 53 18 29 -2 43 -8 45 -19z"/>
<path d="M9490 673 c-8 -3 -22 -12 -32 -20 -14 -13 -17 -12 -25 2 -6 10 -19
15 -34 13 -24 -3 -24 -3 -24 -133 l0 -130 32 -3 32 -3 3 98 3 98 34 17 c25 12
39 14 53 7 16 -8 18 -23 18 -114 l0 -105 35 0 35 0 0 93 c0 77 3 97 18 109 28
24 48 28 71 12 19 -14 21 -25 21 -115 l0 -99 36 0 36 0 -4 116 c-3 112 -4 117
-31 140 -35 30 -80 31 -125 4 l-33 -20 -26 20 c-25 19 -62 24 -93 13z"/>
<path d="M3038 663 c6 -2 12 -14 12 -26 0 -16 3 -18 12 -9 13 13 -6 43 -26 41
-7 0 -6 -2 2 -6z"/>
<path d="M8100 535 l0 -135 30 0 30 0 0 135 0 135 -30 0 -30 0 0 -135z"/>
<path d="M2646 645 c-10 -27 -7 -45 8 -45 20 0 29 31 13 48 -12 12 -15 11 -21
-3z"/>
<path d="M4974 644 c3 -11 26 -71 50 -134 l43 -115 -25 -58 c-14 -32 -22 -60
-18 -64 10 -10 14 -3 91 186 76 185 82 201 66 201 -5 0 -28 -52 -52 -115 -24
-63 -47 -111 -51 -107 -4 4 -25 54 -46 112 -21 57 -44 106 -51 108 -9 3 -11
-2 -7 -14z"/>
<path d="M3160 640 c-13 -8 -12 -11 5 -24 22 -16 41 -6 32 18 -7 18 -16 20
-37 6z"/>
<path d="M2183 623 c-30 -20 -29 -29 4 -57 l27 -24 12 24 c10 18 10 29 1 49
-14 29 -15 29 -44 8z"/>
<path d="M1283 590 c-8 -13 -9 -21 -2 -25 14 -9 39 14 32 31 -7 19 -16 18 -30
-6z"/>
<path d="M2020 576 c0 -10 9 -16 21 -16 24 0 21 23 -4 28 -10 2 -17 -3 -17
-12z"/>
<path d="M2716 563 c-6 -15 8 -32 25 -33 14 0 19 34 7 42 -19 11 -25 10 -32
-9z"/>
<path d="M1463 540 c-35 -32 -29 -40 35 -40 20 0 54 -4 75 -9 30 -7 36 -7 27
4 -6 7 -25 16 -43 19 -25 5 -29 9 -17 16 9 6 10 10 3 10 -7 0 -10 7 -7 15 11
26 -38 17 -73 -15z"/>
<path d="M1095 530 c3 -5 8 -10 11 -10 2 0 4 5 4 10 0 6 -5 10 -11 10 -5 0 -7
-4 -4 -10z"/>
<path d="M1806 465 c-15 -11 -17 -18 -9 -26 16 -16 43 -3 43 21 0 24 -8 25
-34 5z"/>
<path d="M1313 343 c-26 -5 -30 -25 -8 -43 8 -7 15 -8 15 -3 0 5 12 15 26 21
14 7 22 17 19 22 -6 10 -13 11 -52 3z"/>
</g>
</svg>
